# xmcd CD database file
#
# Track frame offsets:
#	150
#	14272
#	42480
#	77450
#	112807
#	130980
#	159155
#	185857
#	226507
#	263845
#	282007
#
# Disc length: 4066 seconds
#
# Revision: 0
# Processed by: cddbd v1.5PL3 Copyright (c) Steve Scherf et al.
# Submitted via: CDex 1.51
#
DISCID=800fe00b
DTITLE=University of Wisconsin - Eau Claire Jazz Ensemble I - Brilliant Corners
DYEAR=1995
DGENRE=Jazz
TTITLE0=We Be Jammin'
TTITLE1=Nardis
TTITLE2=La Niña Nueva
TTITLE3='Round Midnight
TTITLE4=Leicester (Lester) Leaps In
TTITLE5=Pleasin'
TTITLE6=Subconscious Lee
TTITLE7=Leilani's Mirror
TTITLE8=Brilliant Corners
TTITLE9=Tribute To Louie
TTITLE10=Oleo
EXTD=YEAR: 1995
EXTT0=
EXTT1=
EXTT2=
EXTT3=
EXTT4=
EXTT5=
EXTT6=
EXTT7=
EXTT8=
EXTT9=
EXTT10=
PLAYORDER=
